<svg xmlns="http://www.w3.org/2000/svg" width="150" height="40" viewBox="0 0 150 40"><path fill="#FFF" d="M29.764 17.052H17.507a.573.573 0 0 0-.573.573v5.993c0 .316.256.573.573.573h4.781v7.446s-1.073.365-4.042.365c-3.502 0-8.394-1.279-8.394-12.036 0-10.76 5.093-12.176 9.876-12.176 4.14 0 5.923.729 7.058 1.081.357.109.687-.247.687-.563l1.367-5.79a.537.537 0 0 0-.219-.448C28.16 1.743 25.35.17 18.247.17 10.064.17 1.671 3.651 1.671 20.386c0 16.736 9.609 19.229 17.707 19.229 6.706 0 10.773-2.864 10.773-2.864.168-.094.186-.328.186-.435V17.625a.574.574 0 0 0-.573-.573zM92.93 2.175a.57.57 0 0 0-.567-.576H85.46a.572.572 0 0 0-.569.576l.001 13.337H74.133V2.175a.572.572 0 0 0-.57-.576h-6.9a.573.573 0 0 0-.57.576v36.113c0 .319.256.577.57.577h6.9c.316 0 .57-.259.57-.577V22.842h10.758l-.02 15.446c0 .319.255.577.572.577h6.917a.572.572 0 0 0 .567-.577l.003-36.113zM42.788 6.914c0-2.485-1.993-4.494-4.451-4.494-2.456 0-4.449 2.008-4.449 4.494 0 2.482 1.994 4.496 4.449 4.496 2.458-.001 4.451-2.014 4.451-4.496zm-.495 23.755V14a.573.573 0 0 0-.57-.575h-6.88c-.315 0-.598.326-.598.642v23.884c0 .701.438.91 1.003.91h6.198c.68 0 .847-.335.847-.923v-7.269zm76.865-17.19h-6.848a.574.574 0 0 0-.569.578v17.706s-1.74 1.274-4.21 1.274-3.125-1.12-3.125-3.538V14.057a.574.574 0 0 0-.569-.578h-6.949a.576.576 0 0 0-.571.578v16.61c0 7.183 4.003 8.939 9.509 8.939 4.517 0 8.16-2.495 8.16-2.495s.173 1.315.252 1.47a.598.598 0 0 0 .503.313l4.421-.02a.576.576 0 0 0 .573-.577l-.003-24.241a.576.576 0 0 0-.574-.577zm18.719-.811c-3.89 0-6.535 1.736-6.535 1.736V2.175a.572.572 0 0 0-.57-.576h-6.92a.574.574 0 0 0-.57.576v36.113c0 .319.257.577.571.577h4.801c.216 0 .381-.11.502-.306.118-.195.291-1.666.291-1.666s2.829 2.682 8.188 2.682c6.29 0 9.896-3.19 9.896-14.322-.001-11.131-5.76-12.585-9.654-12.585zm-2.702 20.347c-2.374-.071-3.986-1.15-3.986-1.15V20.428s1.589-.974 3.54-1.148c2.466-.221 4.843.525 4.843 6.406-.001 6.206-1.073 7.429-4.397 7.329zM62.128 13.421h-5.176l-.008-6.838c0-.259-.134-.388-.434-.388h-7.054c-.275 0-.422.12-.422.384v7.068s-3.536.853-3.775.921a.575.575 0 0 0-.413.551v4.441c0 .32.255.577.571.577h3.617v10.685c0 7.936 5.566 8.714 9.323 8.714 1.716 0 3.769-.551 4.107-.675.206-.076.325-.289.325-.519l.005-4.886a.584.584 0 0 0-.571-.578c-.302 0-1.074.124-1.868.124-2.543 0-3.404-1.182-3.404-2.713V20.135h5.177a.573.573 0 0 0 .571-.577v-5.562a.571.571 0 0 0-.571-.575z"/></svg>