<svg xmlns="http://www.w3.org/2000/svg" width="188" height="40" viewBox="0 0 188 40"><path d="M2.221.5h18.566l-.001 18.565H2.222V.5h-.001zm20.35.111h18.565c0 6.189.001 12.377-.001 18.566H22.572C22.57 12.989 22.571 6.8 22.571.611zm60.99 7.309c.81-.123 1.686.154 2.223.787.628.694.745 1.798.278 2.609-.515.914-1.668 1.339-2.672 1.119-1.042-.187-1.911-1.156-1.864-2.237-.031-1.138.92-2.151 2.035-2.278zm-30.772.497h5.839c1.818 4.615 3.648 9.226 5.468 13.842.465 1.154.9 2.32 1.387 3.467 2.338-5.768 4.71-11.521 7.03-17.295 1.872-.03 3.746-.007 5.619-.012-.004 7.804-.002 15.609-.001 23.413-1.352-.003-2.702.012-4.053-.008.015-5.759-.001-11.519.007-17.279.002-.258-.007-.518-.024-.776a3.143 3.143 0 0 0-.21.375c-2.321 5.896-4.686 11.774-6.993 17.675-.961.034-1.924.003-2.886.019-2.394-5.896-4.758-11.804-7.14-17.704a4.766 4.766 0 0 0-.202-.357c-.049 2.523-.008 5.049-.021 7.572.001 3.495-.002 6.99.001 10.484-1.274.004-2.549 0-3.822.001 0-7.806-.001-15.612.001-23.417zm41.823 6.618c1.938-.552 4.028-.529 5.964.018a4.82 4.82 0 0 1 1.145.478c-.021 1.279 0 2.559-.012 3.839-1.294-.989-2.937-1.616-4.583-1.408-1.307.118-2.553.796-3.335 1.852-1.005 1.309-1.237 3.047-1.064 4.648.129 1.254.648 2.507 1.623 3.337 1.011.9 2.432 1.219 3.756 1.118 1.309-.15 2.544-.704 3.603-1.479.011 1.213-.006 2.424.009 3.637-1.642.977-3.609 1.229-5.488 1.136-1.922-.102-3.839-.83-5.23-2.181-1.512-1.458-2.333-3.536-2.43-5.618-.098-2.164.342-4.422 1.588-6.23 1.043-1.542 2.675-2.634 4.454-3.147zm43.861-.256c1.856-.327 3.8-.087 5.558.579.002 1.231 0 2.461.001 3.691a7.083 7.083 0 0 0-4.217-1.246c-.751.029-1.576.347-1.918 1.061-.272.706-.084 1.632.582 2.054 1.138.762 2.497 1.084 3.676 1.768.929.521 1.83 1.204 2.301 2.188.884 1.842.51 4.275-1.045 5.649-1.484 1.388-3.622 1.771-5.587 1.697-1.396-.09-2.799-.365-4.082-.937.005-1.295-.009-2.587.007-3.881 1.078.783 2.324 1.344 3.642 1.571.918.15 1.916.157 2.771-.254.819-.407.965-1.57.479-2.281-.455-.548-1.123-.851-1.753-1.147-1.184-.532-2.427-.977-3.466-1.774-.73-.569-1.283-1.372-1.499-2.277-.321-1.335-.221-2.839.555-4.005.885-1.36 2.425-2.175 3.995-2.456zm-27.774.529c1.108-.666 2.517-.722 3.728-.314-.006 1.339 0 2.678-.004 4.018a4.272 4.272 0 0 0-2.714-.638c-1.14.13-2.043 1.005-2.511 2.008-.51 1.063-.605 2.265-.572 3.427 0 2.674.001 5.35 0 8.024h-3.959c-.003-5.591.005-11.183-.003-16.773 1.321-.017 2.642-.01 3.964-.003-.005.96 0 1.92-.003 2.881.429-1.045 1.068-2.06 2.074-2.63zm-28.809-.252c1.332-.006 2.664-.019 3.995.007-.015 5.589-.001 11.18-.007 16.77h-3.986c-.003-5.592.001-11.184-.002-16.777zm49.18 3.913c-.696-1.55-1.954-2.844-3.507-3.545-1.788-.814-3.821-.923-5.748-.678-2.023.255-3.994 1.208-5.279 2.821-1.172 1.44-1.743 3.291-1.853 5.128-.161 2.164.2 4.461 1.471 6.269 1.083 1.558 2.792 2.629 4.639 3.024 1.544.324 3.157.325 4.701.004 1.806-.37 3.491-1.37 4.61-2.845 1.092-1.387 1.641-3.139 1.765-4.885.126-1.789-.055-3.643-.799-5.293zm-3.878 7.703c-.383.863-1.086 1.592-1.972 1.938-1.038.397-2.203.421-3.274.143-1.089-.286-2.013-1.073-2.516-2.076-.646-1.291-.744-2.784-.61-4.2.122-1.287.57-2.612 1.552-3.501.711-.664 1.681-.989 2.641-1.042 1.207-.079 2.491.262 3.359 1.14.928.912 1.287 2.235 1.386 3.498.071 1.38.014 2.82-.566 4.1zm36.036-7.218c-.617-1.666-1.854-3.107-3.448-3.904-1.829-.924-3.957-1.059-5.961-.81-1.614.208-3.203.821-4.437 1.904-1.505 1.297-2.388 3.204-2.647 5.154-.248 1.95-.164 4.004.631 5.83a7.446 7.446 0 0 0 4.079 3.957c1.787.704 3.774.782 5.655.479 1.924-.318 3.745-1.329 4.937-2.886 1.271-1.608 1.819-3.689 1.816-5.716.027-1.358-.143-2.733-.625-4.008zm-3.622 5.69c-.154.883-.46 1.764-1.039 2.462-.583.703-1.45 1.132-2.346 1.263-.96.144-1.973.075-2.872-.312-.97-.411-1.721-1.25-2.117-2.216-.477-1.15-.571-2.426-.477-3.656.092-1.192.43-2.416 1.217-3.342.718-.865 1.82-1.344 2.931-1.406 1.134-.079 2.345.183 3.217.949.804.667 1.249 1.666 1.453 2.672.229 1.178.227 2.399.033 3.586zm23.364 3.79a2.422 2.422 0 0 1-1.155-.3c-.572-.315-.794-.991-.867-1.601-.121-1.035-.045-2.079-.066-3.117-.001-1.875.004-3.75-.002-5.624.831.003 1.662-.012 2.493-.01.499.001.998.008 1.495.029V15.05c-1.324.004-2.649-.01-3.973.009-.029-1.676-.003-3.352-.015-5.027-1.324.399-2.642.824-3.973 1.203-.032 1.271-.002 2.543-.017 3.814-1.958-.001-3.916.002-5.874-.002.024-1.001-.069-2.011.074-3.006.119-.785.574-1.57 1.34-1.874.964-.396 2.043-.133 2.959.271-.006-1.147.009-2.295-.008-3.441-1.929-.531-4.14-.427-5.852.687-1.104.707-1.904 1.837-2.266 3.091-.425 1.388-.208 2.854-.276 4.28-.929-.007-1.856-.016-2.783.005.011 1.072.006 2.146.003 3.217.931.019 1.863-.003 2.794.014-.008 4.514-.002 9.026-.002 13.54h4.016c0-4.515-.001-9.03.001-13.544 1.958-.003 3.917-.002 5.876-.001.006 2.878-.006 5.755.005 8.633.018 1.339.247 2.772 1.134 3.83.769.937 1.988 1.365 3.166 1.452 1.24.089 2.522-.063 3.67-.562v-3.292c-.549.369-1.23.598-1.897.587zM2.109 21.071c6.188.002 12.377-.001 18.565.002v18.565H2.109V21.071zm20.463.002c6.188-.002 12.376-.001 18.564-.001v18.566H22.571c.001-6.189-.001-12.376.001-18.565z" fill="#FFF"/></svg>