<svg xmlns="http://www.w3.org/2000/svg" width="76" height="40" viewBox="0 0 76 40"><path fill="#FFF" d="M12.666 24.688c-.601 0-1.071.421-1.071 1.033 0 .615.473 1.033 1.071 1.033s1.071-.422 1.071-1.033c0-.612-.47-1.033-1.071-1.033zm0 1.771a.72.72 0 0 1-.746-.737c0-.422.315-.738.746-.738.425 0 .746.322.746.738a.729.729 0 0 1-.746.737zm10.424-5.386h-5.215l.593-9.064-3.387 9.064h-4.843L17.922.585h5.154l-.596 9.189L25.931.585h4.843zm.629 0L31.403.585h4.843l-7.684 20.488z"/><path fill="#FFF" d="M9.68 14.011C2.912 21.958-3.472 32.532 2.167 37.403c5.464 4.717 12.293 1.924 16.95.062 4.657-1.861 56.126-24.214 56.126-24.214.498-.248.404-.559-.217-.403-.25.062-56.034 15.18-56.034 15.18-7.077 1.987-15.148-2.344-9.312-14.017z"/><path fill="#FFF" d="M12.849 25.795c.15-.007.268-.084.268-.293 0-.268-.175-.335-.468-.335h-.42v1.112h.28v-.475h.047l.255.475h.323l-.285-.484zm-.181-.179h-.161v-.259h.135c.083 0 .178.01.178.118.001.116-.054.141-.152.141zM61.349.522c-.601 0-1.072.421-1.072 1.034s.474 1.031 1.072 1.031 1.071-.42 1.071-1.031c0-.613-.472-1.034-1.071-1.034zm0 1.77a.72.72 0 0 1-.746-.736c0-.423.314-.739.746-.739.425 0 .746.32.746.739a.729.729 0 0 1-.746.736z"/><path fill="#FFF" d="M61.531 1.629c.15-.007.269-.085.269-.293 0-.268-.176-.336-.469-.336h-.42v1.112h.279v-.473h.048l.256.473h.322l-.285-.483zm-.179-.18h-.162v-.258h.136c.082 0 .178.01.178.118 0 .115-.056.14-.152.14zM58.157 4L59.458.585H44.682l-5.074 6.147L41.951.585h-4.905l-7.622 20.488h4.843l3.254-8.568.223 8.568 14.86-.032 1.415-3.94H48.37l1.854-4.967h4.657l1.433-3.818h-4.656L53.252 4h4.905zm-15.61 15.708l-.31-10.68L49.56.99l-7.013 18.718z"/></svg>